<?xml version="1.0" encoding="UTF-8"?>
<svg width="186px" height="52px" viewBox="0 0 186 52" version="1.1" xmlns="http://www.w3.org/2000/svg" xmlns:xlink="http://www.w3.org/1999/xlink">
    <title>编组 4</title>
    <defs>
        <path d="M31.4626248,3.46483417 C33.0215982,4.31008515 34.5805716,5.15518613 36.139545,6.00043711 C36.2019854,6.03419015 36.2648789,6.06689309 36.3265644,6.10192124 C38.5760827,7.38018615 38.6976415,8.67390246 36.6230623,10.1546106 C35.5602906,10.9131538 34.4006494,11.5451606 33.252258,12.1756673 C31.4941093,13.140929 29.7332425,13.1325283 27.9957059,12.0745582 C26.4605158,11.1397491 24.8438586,10.348278 22.9869527,10.6324035 C21.8536618,10.8057441 20.660271,11.0528913 19.6686981,11.5873894 C17.2687791,12.8809557 14.9265439,14.2949078 12.6453146,15.7873169 C10.4213161,17.2423728 9.28591115,19.3935661 9.30093612,22.0534553 C9.31346952,24.274705 9.44423966,26.4951296 9.50811469,28.7163793 C9.5370321,29.72522 9.57017765,30.7526623 10.5893844,31.3089123 C11.6572903,31.8917147 12.5556177,31.3108625 13.4543982,30.7661635 C22.8818534,25.0525249 32.3104411,19.3406114 41.7565454,13.6575005 C42.4033744,13.2682905 43.1749334,12.9678135 43.9190849,12.8782554 C45.60981,12.6746871 46.2642648,13.2224614 46.5046644,14.920089 C47.0548503,18.8049132 45.9589331,21.8516871 42.2716983,24.0437592 C34.4733582,28.680076 26.7387421,33.4223023 18.9778512,38.1210997 C17.0075408,39.314007 14.9907209,40.438208 13.0768863,41.7148228 C9.66689622,43.9894773 5.83447029,43.0431922 3.13442924,40.8242677 C1.29458695,39.3122818 0.453490303,37.3318788 0.401242647,34.9811675 C0.266621882,28.9147721 0.0709196814,22.8492018 0.000551451919,16.7821314 C-0.0287434762,14.2590546 1.1098326,12.1413142 3.25153345,10.7993685 C8.47728052,7.52524919 13.7703002,4.35636431 19.0575062,1.18012877 C21.5646387,-0.326006628 24.1710568,-0.378136315 26.7727937,0.952933347 C28.3512467,1.76045594 29.8943646,2.63638469 31.4534135,3.48163568 C31.4565091,3.47601017 31.4595292,3.47038466 31.4626248,3.46483417" id="path-1"></path>
        <linearGradient x1="86.338343%" y1="-34.3067866%" x2="86.338343%" y2="100%" id="linearGradient-3">
            <stop stop-color="#2F49FF" offset="0%"></stop>
            <stop stop-color="#2F49FF" offset="42.7441087%"></stop>
            <stop stop-color="#2E48FF" offset="58.6247643%"></stop>
            <stop stop-color="#0300F7" offset="100%"></stop>
        </linearGradient>
        <polygon id="path-4" points="0.00558101036 0.0230135544 29.1268611 0.0230135544 29.1268611 28.9253988 0.00558101036 28.9253988"></polygon>
        <polygon id="path-6" points="0.00541051106 0.0230135544 29.1266793 0.0230135544 29.1266793 28.9253988 0.00541051106 28.9253988"></polygon>
    </defs>
    <g id="登录页" stroke="none" stroke-width="1" fill="none" fill-rule="evenodd">
        <g id="登录页/登录" transform="translate(-1330.000000, -269.000000)">
            <g id="编组-4" transform="translate(1330.000000, 269.000000)">
                <g id="logo备份-6">
                    <g id="形状结合">
                        <mask id="mask-2" fill="white">
                            <use xlink:href="#path-1"></use>
                        </mask>
                        <use id="蒙版" fill="#2F49FF" xlink:href="#path-1"></use>
                        <path d="M0.000327536784,21.15 C2.24567408,24.4751194 5.62544427,26.5916834 9.40611948,26.5916834 C9.51038266,26.5916834 9.61434128,26.5900739 9.71797993,26.5868738 C9.72988697,26.9648972 9.74011071,27.3435164 9.74909389,27.7221541 C9.7799354,29.0262997 9.81528637,30.354492 10.9023086,31.0735659 C11.3098404,31.3431395 11.6942169,31.4201236 12.0637454,31.3755696 C11.0685333,31.8542682 9.98596993,32.1166667 8.85372869,32.1166667 C3.96393204,32.1166667 4.59188243e-14,27.2229021 4.59188243e-14,21.1860899 L4.59188243e-14,21.1860899 Z" fill="url(#linearGradient-3)" opacity="0.6" mask="url(#mask-2)"></path>
                    </g>
                    <path d="M18.9830091,49.7394894 C18.3222745,49.330088 17.6216888,48.9734807 17.0088358,48.5007565 C15.5132522,47.3473125 15.5410205,46.0257146 17.0929661,44.9574079 C18.2870013,44.1356509 19.5286929,43.3830491 20.7637051,42.623706 C28.2064998,38.0468176 35.6528968,33.4756857 43.1013202,28.9081139 C43.4619324,28.6870144 43.8394306,28.4793218 44.2332897,28.3308617 C45.2737739,27.9388058 46.5114128,28.4513719 46.6389967,29.5514158 C47.0357076,32.9699367 47.6746028,36.5220718 44.9402546,39.3497064 C43.9764708,40.3464342 42.7152663,41.0757823 41.5224319,41.8164921 C37.0157181,44.6151165 32.4651755,47.3417073 27.9637902,50.1488151 C25.5122279,51.6777269 23.0411529,51.6599268 20.4967546,50.5123151 C19.9827415,50.2805356 19.5026508,49.9721779 19.0068748,49.6991173 C18.9989195,49.7125999 18.9909643,49.7260068 18.9830091,49.7394894" id="Fill-5" fill="#2F49FF"></path>
                </g>
                <g id="编组备份-11" transform="translate(59.000000, 11.000000)">
                    <polygon id="Fill-1" fill="#304FFE" points="0 28.9807245 4.41011025 28.9807245 4.41011025 0 0 0"></polygon>
                    <g id="编组" transform="translate(13.230331, 0.000000)">
                        <path d="M4.62086061,4.65565242 L4.62086061,24.6038059 L13.4527243,24.6038059 C14.1571137,24.6038059 14.822061,24.4655748 15.447566,24.1889397 C16.0725596,23.9123621 16.6123036,23.5439955 17.0673094,23.0826872 C17.5218037,22.6218975 17.885706,22.0746774 18.1585049,21.4405082 C18.4313038,20.8068576 18.5677032,20.1326999 18.5677032,19.4179775 L18.5677032,9.84148089 C18.5677032,9.12733469 18.4313038,8.4585933 18.1585049,7.83629388 C17.885706,7.21399446 17.5218037,6.66677432 17.0673094,6.19411486 C16.6123036,5.72203161 16.0725596,5.34709621 15.447566,5.07051869 C14.822061,4.79394118 14.1571137,4.65565242 13.4527243,4.65565242 L4.62086061,4.65565242 Z M0.0173795618,0.368758501 L14.3052207,0.368758501 C15.5328157,0.368758501 16.6804465,0.60534752 17.7493066,1.07743077 C18.8175983,1.55014785 19.7553445,2.18967574 20.562545,2.99618731 C21.3691772,3.80327508 22.0058784,4.7480754 22.4721371,5.83110687 C22.9378275,6.91477216 23.1711843,8.07829921 23.1711843,9.32289804 L23.1711843,19.9365603 C23.1711843,21.1812168 22.9378275,22.34532 22.4721371,23.4284091 C22.0058784,24.5119592 21.3691772,25.4626944 20.562545,26.2806148 C19.7553445,27.0984199 18.8175983,27.7439403 17.7493066,28.2165998 C16.6804465,28.6887406 15.5328157,28.9253873 14.3052207,28.9253873 L0.0173795618,28.9253873 L0.0173795618,0.368758501 Z" id="Fill-2" fill="#304FFE"></path>
                        <polygon id="Fill-4" fill="#304FFE" points="66.443281 28.925393 66.443281 4.65565818 57.4068182 4.65565818 57.4068182 0.368706642 80.0491249 0.368706642 80.0491249 4.65565818 71.046762 4.65565818 71.046762 28.925393"></polygon>
                        <g transform="translate(26.029560, 0.000000)">
                            <mask id="mask-5" fill="white">
                                <use xlink:href="#path-4"></use>
                            </mask>
                            <g id="Clip-7"></g>
                            <polygon id="Fill-6" fill="#304FFE" mask="url(#mask-5)" points="17.5329089 0.0230135544 11.8041324 0.0230135544 0.00558101036 28.9254219 5.29105925 28.9254219 8.21353089 21.5999206 9.88516284 17.4520645 9.88533334 17.451834 9.97331098 17.2333377 9.97376564 17.2333377 14.6344208 5.72742487 19.2927458 17.4561555 12.4895396 17.4532169 10.9303235 21.5999206 20.9529543 21.5999206 23.8754828 28.9254219 29.1268611 28.9254219"></polygon>
                        </g>
                        <g transform="translate(82.294328, 0.000000)">
                            <mask id="mask-7" fill="white">
                                <use xlink:href="#path-6"></use>
                            </mask>
                            <g id="Clip-9"></g>
                            <polygon id="Fill-8" fill="#304FFE" mask="url(#mask-7)" points="17.5327384 0.0230135544 11.8039619 0.0230135544 0.00541051106 28.9254219 5.29088875 28.9254219 8.21336039 21.5999206 9.88499234 17.4520645 9.88516284 17.451834 9.97314048 17.2333377 9.97359514 17.2333377 14.6342503 5.72742487 19.2925753 17.4561555 12.4893691 17.4532169 10.930153 21.5999206 20.9527838 21.5999206 23.8753123 28.9254219 29.1266906 28.9254219"></polygon>
                        </g>
                    </g>
                </g>
            </g>
        </g>
    </g>
</svg>